<?xml version="1.0" encoding="UTF-8"?>
<svg version="1.1" xmlns="http://www.w3.org/2000/svg" width="500" height="500">
<path d="M0 0 C1.33154124 0.67023888 2.66417916 1.33833173 4 2 C4 2.66 4 3.32 4 4 C5.65 4.66 7.3 5.32 9 6 C9 6.66 9 7.32 9 8 C9.87785156 8.40605469 9.87785156 8.40605469 10.7734375 8.8203125 C27.3827928 17.62035689 38.53326232 38.84963785 44.40234375 56.02197266 C46.17487326 61.88840815 47.07736469 67.95308798 48 74 C48.185625 75.010625 48.37125 76.02125 48.5625 77.0625 C52.50534828 103.53590989 42.26423351 128.84031048 27.515625 150.19921875 C27.01546875 150.79347656 26.5153125 151.38773438 26 152 C25.34 152 24.68 152 24 152 C23.773125 152.556875 23.54625 153.11375 23.3125 153.6875 C20.88579746 157.96311877 17.56749627 161.13916819 13 163 C13 163.66 13 164.32 13 165 C12.34 165 11.68 165 11 165 C11 165.66 11 166.32 11 167 C8.525 167.99 8.525 167.99 6 169 C6 169.66 6 170.32 6 171 C1.06267787 174.91169885 -4.89140594 177.5428799 -10.625 180.0625 C-11.40335205 180.40611572 -12.1817041 180.74973145 -12.98364258 181.10375977 C-34.45689375 190.35928218 -60.38269339 192.74673907 -83 186 C-83.66 185.67 -84.32 185.34 -85 185 C-89.60294356 184.63033251 -92.3086469 185.32485252 -96.30078125 187.58984375 C-97.76741211 188.39518555 -97.76741211 188.39518555 -99.26367188 189.21679688 C-101.28566521 190.35797313 -103.30651284 191.50118194 -105.32617188 192.64648438 C-112.08556479 196.35238922 -117.94971824 199.12228484 -125.8125 197.375 C-129.15715451 195.27264573 -131.24447016 192.51105968 -133 189 C-133.07200635 186.4807105 -133.08849057 183.98365841 -133.0703125 181.46484375 C-133.07890539 179.91730651 -133.08938452 178.36977881 -133.1015625 176.82226562 C-133.11817456 174.3883549 -133.12520043 171.95656249 -133.09960938 169.52270508 C-132.85722892 157.05957169 -132.85722892 157.05957169 -139.24902344 146.72192383 C-140.11575684 145.86957153 -140.11575684 145.86957153 -141 145 C-150.05934969 131.5434221 -154.51625296 117.8316538 -157 102 C-157.185625 101.18660156 -157.37125 100.37320313 -157.5625 99.53515625 C-160.22894744 84.08404564 -157.08662058 67.56021504 -152 53 C-151.72542969 52.17242187 -151.45085937 51.34484375 -151.16796875 50.4921875 C-147.09592133 39.22433026 -140.35056738 29.1898537 -132.625 20.125 C-132.11324219 19.52397461 -131.60148437 18.92294922 -131.07421875 18.30371094 C-128.76831789 15.68740035 -127.36386649 14.12128883 -124 13 C-124 12.34 -124 11.68 -124 11 C-120.53846154 8 -120.53846154 8 -118 8 C-118 7.34 -118 6.68 -118 6 C-84.55193346 -22.44087095 -36.43733952 -19.2630521 0 0 Z " fill="#FC2157" transform="translate(297,102)"/>
<path d="M0 0 C0.91652344 0.00491455 1.83304687 0.0098291 2.77734375 0.01489258 C23.8708814 0.37444152 45.84512266 8.05005202 60.875 23.3125 C60.875 26.3125 60.875 26.3125 59.44140625 27.8203125 C58.44947266 28.62082031 58.44947266 28.62082031 57.4375 29.4375 C51.47511549 34.43786857 45.81316276 39.79476173 40.9375 45.875 C40.256875 46.679375 39.57625 47.48375 38.875 48.3125 C38.215 48.3125 37.555 48.3125 36.875 48.3125 C36.648125 48.84875 36.42125 49.385 36.1875 49.9375 C33.90955118 54.05950263 31.47381529 57.77956157 26.875 59.3125 C25.42629381 61.17054317 25.42629381 61.17054317 24.1875 63.375 C23.75050781 64.10847656 23.31351562 64.84195313 22.86328125 65.59765625 C22.53714844 66.16355469 22.21101563 66.72945313 21.875 67.3125 C15.9153543 65.69431805 10.91669682 62.64869587 5.625 59.5625 C4.73425781 59.04945313 3.84351563 58.53640625 2.92578125 58.0078125 C-0.69946368 55.91369424 -4.31508449 53.81677886 -7.86938477 51.60375977 C-8.74393311 51.06033936 -9.61848145 50.51691895 -10.51953125 49.95703125 C-11.29917236 49.46307861 -12.07881348 48.96912598 -12.88208008 48.46020508 C-16.5660738 46.57510064 -19.06113798 46.67083758 -23.125 47.3125 C-24.96198495 48.31750782 -24.96198495 48.31750782 -26.125 50.3125 C-26.4260924 52.84733138 -26.54525619 55.13798751 -26.52905273 57.67382812 C-26.53934761 58.79379433 -26.53934761 58.79379433 -26.54985046 59.93638611 C-26.56815987 62.40570054 -26.56427565 64.87438222 -26.55859375 67.34375 C-26.56315326 69.05863655 -26.56845813 70.77352127 -26.57447815 72.48840332 C-26.58341712 76.08300194 -26.58097688 79.67737847 -26.57104492 83.27197266 C-26.5595482 87.88256443 -26.57977305 92.49239115 -26.60896206 97.10288239 C-26.62729082 100.64419436 -26.62703839 104.18532182 -26.62132454 107.72666931 C-26.62117095 109.42676365 -26.62724647 111.12687021 -26.63961601 112.82691956 C-26.65446392 115.2021616 -26.64389676 117.57597512 -26.62670898 119.95117188 C-26.64121094 121.00793373 -26.64121094 121.00793373 -26.65600586 122.08604431 C-26.60781106 125.26016436 -26.53986752 126.88554409 -24.28114319 129.21008301 C-22.03862679 130.42480064 -22.03862679 130.42480064 -19.125 131.3125 C-16.98897818 136.65255456 -16.72192253 142.03194373 -16.37109375 147.73828125 C-16.28227963 150.29799514 -16.28227963 150.29799514 -15.125 152.3125 C-14.92120266 154.12120138 -14.75999005 155.93486592 -14.625 157.75 C-14.39193358 160.87558718 -14.12025057 163.32674829 -13.125 166.3125 C-12.99718214 168.98644964 -13.08108129 171.63345857 -13.125 174.3125 C-14.19878906 174.03535156 -15.27257812 173.75820313 -16.37890625 173.47265625 C-17.81505529 173.10657904 -19.25125599 172.74070442 -20.6875 172.375 C-21.39197266 172.19259766 -22.09644531 172.01019531 -22.82226562 171.82226562 C-24.24109575 171.4626543 -25.66425574 171.11973413 -27.09106445 170.79321289 C-28.89559955 170.36671792 -30.67730477 169.84607979 -32.453125 169.3125 C-38.27514804 169.3125 -42.40716267 172.32110077 -47.3125 175.25 C-49.26002614 176.39147734 -51.21169509 177.52592377 -53.16796875 178.65234375 C-54.02414795 179.16144287 -54.88032715 179.67054199 -55.76245117 180.19506836 C-58.125 181.3125 -58.125 181.3125 -62.125 181.3125 C-62.11863525 180.34948975 -62.11227051 179.38647949 -62.10571289 178.39428711 C-62.0911983 174.79486727 -62.12276857 171.197028 -62.16772461 167.59790039 C-62.18080218 166.04522095 -62.18165557 164.49238558 -62.16967773 162.93969727 C-61.83764854 154.06462997 -61.83764854 154.06462997 -64.6027832 145.90063477 C-66.354453 144.19812315 -68.17078058 142.77246889 -70.125 141.3125 C-82.93755553 124.22158673 -87.84545182 103.4020896 -87.125 82.3125 C-87.09664062 81.46171875 -87.06828125 80.6109375 -87.0390625 79.734375 C-85.96971587 62.31930132 -78.53453747 45.41955402 -67.125 32.3125 C-66.39410156 31.38630859 -66.39410156 31.38630859 -65.6484375 30.44140625 C-64.52698893 29.02156054 -63.33345689 27.65906625 -62.125 26.3125 C-61.465 26.3125 -60.805 26.3125 -60.125 26.3125 C-60.125 25.6525 -60.125 24.9925 -60.125 24.3125 C-59.465 24.3125 -58.805 24.3125 -58.125 24.3125 C-58.125 23.6525 -58.125 22.9925 -58.125 22.3125 C-47.93300419 11.87550429 -33.03339514 5.78530076 -19.125 2.3125 C-18.45726562 2.13662354 -17.78953125 1.96074707 -17.1015625 1.77954102 C-11.35690474 0.36041368 -5.90655304 -0.03784845 0 0 Z " fill="#36CEC0" transform="translate(241.125,101.6875)"/>
<path d="M0 0 C1.33154124 0.67023888 2.66417916 1.33833173 4 2 C4 2.66 4 3.32 4 4 C5.65 4.66 7.3 5.32 9 6 C9 6.66 9 7.32 9 8 C9.87785156 8.40605469 9.87785156 8.40605469 10.7734375 8.8203125 C27.3827928 17.62035689 38.53326232 38.84963785 44.40234375 56.02197266 C46.17487326 61.88840815 47.07736469 67.95308798 48 74 C48.185625 75.010625 48.37125 76.02125 48.5625 77.0625 C52.50534828 103.53590989 42.26423351 128.84031048 27.515625 150.19921875 C27.01546875 150.79347656 26.5153125 151.38773438 26 152 C25.34 152 24.68 152 24 152 C23.773125 152.556875 23.54625 153.11375 23.3125 153.6875 C20.88579746 157.96311877 17.56749627 161.13916819 13 163 C13 163.66 13 164.32 13 165 C12.34 165 11.68 165 11 165 C11 165.66 11 166.32 11 167 C8.525 167.99 8.525 167.99 6 169 C6 169.66 6 170.32 6 171 C1.06267787 174.91169885 -4.89140594 177.5428799 -10.625 180.0625 C-11.40335205 180.40611572 -12.1817041 180.74973145 -12.98364258 181.10375977 C-34.45689375 190.35928218 -60.38269339 192.74673907 -83 186 C-83.66 185.67 -84.32 185.34 -85 185 C-89.60294356 184.63033251 -92.3086469 185.32485252 -96.30078125 187.58984375 C-97.76741211 188.39518555 -97.76741211 188.39518555 -99.26367188 189.21679688 C-101.28566521 190.35797313 -103.30651284 191.50118194 -105.32617188 192.64648438 C-112.08556479 196.35238922 -117.94971824 199.12228484 -125.8125 197.375 C-129.15715451 195.27264573 -131.24447016 192.51105968 -133 189 C-133.07200635 186.4807105 -133.08849057 183.98365841 -133.0703125 181.46484375 C-133.07890539 179.91730651 -133.08938452 178.36977881 -133.1015625 176.82226562 C-133.11817456 174.3883549 -133.12520043 171.95656249 -133.09960938 169.52270508 C-132.85722892 157.05957169 -132.85722892 157.05957169 -139.24902344 146.72192383 C-140.11575684 145.86957153 -140.11575684 145.86957153 -141 145 C-150.05934969 131.5434221 -154.51625296 117.8316538 -157 102 C-157.185625 101.18660156 -157.37125 100.37320313 -157.5625 99.53515625 C-160.22894744 84.08404564 -157.08662058 67.56021504 -152 53 C-151.72542969 52.17242187 -151.45085937 51.34484375 -151.16796875 50.4921875 C-147.09592133 39.22433026 -140.35056738 29.1898537 -132.625 20.125 C-132.11324219 19.52397461 -131.60148437 18.92294922 -131.07421875 18.30371094 C-128.76831789 15.68740035 -127.36386649 14.12128883 -124 13 C-124 12.34 -124 11.68 -124 11 C-120.53846154 8 -120.53846154 8 -118 8 C-118 7.34 -118 6.68 -118 6 C-84.55193346 -22.44087095 -36.43733952 -19.2630521 0 0 Z M-106 16 C-106.76957031 16.54269531 -107.53914063 17.08539063 -108.33203125 17.64453125 C-111.25011523 19.71797045 -111.25011523 19.71797045 -114 22 C-114 22.66 -114 23.32 -114 24 C-114.66 24 -115.32 24 -116 24 C-116 24.66 -116 25.32 -116 26 C-116.58007812 26.2371875 -117.16015625 26.474375 -117.7578125 26.71875 C-130.23474779 33.84842731 -137.6299531 53.99283116 -141.3125 67.25 C-145.95672098 92.58211444 -140.50013129 115.80363949 -128.07421875 138.0078125 C-126.27471853 140.93579967 -126.27471853 140.93579967 -124.24243164 142.3293457 C-120.60502625 145.14008913 -119.17402255 147.03359605 -118.34301758 151.6484375 C-118.00308933 156.07638425 -118.02826467 160.49956992 -118.0625 164.9375 C-118.04937784 166.49547246 -118.03313139 168.05342193 -118.01367188 169.61132812 C-117.97300566 173.40824216 -117.97490462 177.20297429 -118 181 C-113.84810924 180.47618958 -110.85926353 179.62800223 -107.28515625 177.4609375 C-106.43373047 176.96335937 -105.58230469 176.46578125 -104.70507812 175.953125 C-102.94278381 174.90069794 -101.1849427 173.84077803 -99.43164062 172.7734375 C-92.91459723 168.9903012 -92.91459723 168.9903012 -88.31640625 169.0390625 C-86.67478516 169.51472656 -86.67478516 169.51472656 -85 170 C-83.82179687 170.309375 -82.64359375 170.61875 -81.4296875 170.9375 C-80.25664062 171.288125 -79.08359375 171.63875 -77.875 172 C-56.775673 178.27901197 -33.70027381 175.62193883 -14.0078125 165.75 C-8.42725441 162.50312984 -3.21567737 158.80151412 2 155 C2.99 154.34 3.98 153.68 5 153 C5 152.34 5 151.68 5 151 C5.66 151 6.32 151 7 151 C7 150.34 7 149.68 7 149 C7.66 149 8.32 149 9 149 C9 148.34 9 147.68 9 147 C9.66 147 10.32 147 11 147 C28.49452983 127.5092064 34.01510772 104.7018897 33 79 C30.94443458 55.58216612 19.43056719 35.42022655 2 20 C-29.14555092 -4.62942071 -73.33710889 -7.96888682 -106 16 Z " fill="#0F1414" transform="translate(297,102)"/>
<path d="M0 0 C4.21661825 0.85287283 7.59906277 3.11327756 11.19921875 5.38232422 C12.87825211 6.39903027 14.55795061 7.41463864 16.23828125 8.42919922 C17.07133789 8.93902344 17.90439453 9.44884766 18.76269531 9.97412109 C22.31626678 12.11908247 25.94123181 14.12596812 29.57421875 16.13232422 C35.58649995 19.48290679 41.45048935 23.01717909 47.2890625 26.66357422 C49.89044634 28.25583064 52.5166223 29.74524986 55.19921875 31.19482422 C63.76426977 35.9496871 63.76426977 35.9496871 65.19921875 40.88232422 C65.19921875 44.97873742 64.60295999 46.19952158 62.19921875 49.44482422 C59.5546875 51.40185547 59.5546875 51.40185547 56.38671875 53.25732422 C55.80905762 53.59932861 55.23139648 53.94133301 54.63623047 54.29370117 C52.83113687 55.35711237 51.01656368 56.40251616 49.19921875 57.44482422 C48.15636719 58.05068359 47.11351562 58.65654297 46.0390625 59.28076172 C42.43683106 61.35543694 38.82015275 63.4030287 35.19921875 65.44482422 C32.34003445 67.05847505 29.48101025 68.67240513 26.62255859 70.28735352 C24.59833355 71.42948594 22.57262573 72.56899459 20.54541016 73.70581055 C16.41825499 76.0257544 12.30276618 78.33933377 8.30078125 80.87060547 C0.23437988 85.94004412 0.23437988 85.94004412 -3.86328125 85.56982422 C-7.99453774 83.98764088 -7.99453774 83.98764088 -9.80078125 81.44482422 C-10.10188563 78.91511838 -10.2210408 76.6300755 -10.20483398 74.09936523 C-10.21169724 73.35432739 -10.21856049 72.60928955 -10.22563171 71.8416748 C-10.2439433 69.37716653 -10.24005609 66.91329223 -10.234375 64.44873047 C-10.23893489 62.73623954 -10.24423988 61.02375045 -10.2502594 59.31126404 C-10.25919916 55.72086151 -10.2567578 52.1306813 -10.24682617 48.5402832 C-10.23533811 43.93875707 -10.25554063 39.33799849 -10.28474331 34.73657322 C-10.30308891 31.19950992 -10.30281611 27.66263108 -10.29710579 24.12553215 C-10.29695236 22.42905539 -10.30301477 20.7325663 -10.31539726 19.03613472 C-10.33027426 16.66349269 -10.31965584 14.29227515 -10.30249023 11.91967773 C-10.3121582 11.21876511 -10.32182617 10.51785248 -10.33178711 9.79570007 C-10.28156069 6.48075609 -9.99442984 4.70636459 -7.99989319 2.01255798 C-5.34019079 0.11647203 -3.24397567 -0.17464102 0 0 Z " fill="#040A0A" transform="translate(223.80078125,147.55517578125)"/>
<path d="M0 0 C1.87365234 -0.01160156 1.87365234 -0.01160156 3.78515625 -0.0234375 C4.82542969 0.10804688 5.86570312 0.23953125 6.9375 0.375 C9.43086211 4.11504317 9.19231228 7.00061609 9.1328125 11.32421875 C9.1299826 12.09683548 9.12715271 12.86945221 9.12423706 13.66548157 C9.11304878 16.13131243 9.08794703 18.59677906 9.0625 21.0625 C9.05246843 22.73502079 9.04334289 24.40754728 9.03515625 26.08007812 C9.01311392 30.17852559 8.97859363 34.27670106 8.9375 38.375 C9.5975 38.375 10.2575 38.375 10.9375 38.375 C11.7625 37.385 12.5875 36.395 13.4375 35.375 C14.2625 34.385 15.0875 33.395 15.9375 32.375 C16.5975 32.375 17.2575 32.375 17.9375 32.375 C18.185 31.75625 18.4325 31.1375 18.6875 30.5 C20.14378639 28.02431313 21.31562506 27.42374998 23.9375 26.375 C23.9375 25.715 23.9375 25.055 23.9375 24.375 C24.5975 24.375 25.2575 24.375 25.9375 24.375 C25.9375 23.715 25.9375 23.055 25.9375 22.375 C32.5375 22.375 39.1375 22.375 45.9375 22.375 C46.4325 24.355 46.4325 24.355 46.9375 26.375 C46.31875 26.6225 45.7 26.87 45.0625 27.125 C42.81793248 28.18543324 42.81793248 28.18543324 41.99682617 30.26196289 C40.86699725 32.51563179 39.71757475 33.74623918 37.86328125 35.43359375 C37.27869141 35.98466797 36.69410156 36.53574219 36.09179688 37.10351562 C34.85955728 38.24689807 33.61987074 39.38230471 32.37304688 40.50976562 C28.95004916 43.58863758 28.95004916 43.58863758 27.7265625 47.8125 C29.45498048 51.47005546 31.64281632 54.65814466 34 57.9375 C34.99640067 59.36046222 35.99249148 60.78364145 36.98828125 62.20703125 C38.40673666 64.21554936 39.82826965 66.22173755 41.25537109 68.22412109 C42.41013836 69.85018437 43.54934529 71.48726588 44.6875 73.125 C45.34234375 74.04796875 45.9971875 74.9709375 46.671875 75.921875 C48.14416776 78.77557825 47.85794889 79.43980801 46.9375 82.375 C31.06403975 83.73558231 31.06403975 83.73558231 26.46484375 80.79296875 C24.65490914 78.41823185 23.31556108 76.02398068 21.9375 73.375 C20.47454369 71.1766258 18.99502413 68.98919316 17.5 66.8125 C16.30901265 65.00228962 15.12025235 63.19060166 13.9375 61.375 C10.59466723 64.13008195 9.04656559 65.46679964 8.51953125 69.85546875 C8.59558594 71.07878906 8.67164063 72.30210937 8.75 73.5625 C8.87587933 75.83070296 8.95189574 78.10335235 8.9375 80.375 C6.45461164 82.85788836 4.92563844 82.66083167 1.52734375 82.69726562 C0.49287109 82.69243164 0.49287109 82.69243164 -0.5625 82.6875 C-1.25214844 82.70361328 -1.94179688 82.71972656 -2.65234375 82.73632812 C-4.65625 82.73828125 -4.65625 82.73828125 -8.0625 82.375 C-10.44926156 78.79485767 -10.35188775 76.23854466 -10.3371582 72.10546875 C-10.34226913 71.36857819 -10.34738007 70.63168762 -10.35264587 69.87246704 C-10.36655055 67.43572885 -10.36558468 64.99927316 -10.36328125 62.5625 C-10.36716732 60.87003473 -10.3715018 59.17757044 -10.37626648 57.48510742 C-10.38373028 53.9376306 -10.38343599 50.39025329 -10.37817383 46.84277344 C-10.37237476 42.29284645 -10.38931978 37.74332594 -10.4125185 33.19346619 C-10.42723623 29.69850272 -10.42813031 26.20363764 -10.42500877 22.70864868 C-10.42552284 21.03088576 -10.4307765 19.35311745 -10.44082069 17.67538452 C-10.453132 15.3314963 -10.44642636 12.98840631 -10.43481445 10.64453125 C-10.44245819 9.94937408 -10.45010193 9.25421692 -10.45797729 8.53799438 C-10.42701465 5.71614815 -10.36045332 3.81119652 -8.74455261 1.44555664 C-5.95031333 -0.33286063 -3.25243929 -0.0201806 0 0 Z " fill="#121716" transform="translate(375.0625,333.625)"/>
<path d="M0 0 C1.8871875 -0.00386719 1.8871875 -0.00386719 3.8125 -0.0078125 C7 0.125 7 0.125 9 1.125 C9.33 13.665 9.66 26.205 10 39.125 C10.66 39.125 11.32 39.125 12 39.125 C12 38.465 12 37.805 12 37.125 C12.66 37.125 13.32 37.125 14 37.125 C14 36.465 14 35.805 14 35.125 C14.66 35.125 15.32 35.125 16 35.125 C16.25910156 34.56296875 16.51820313 34.0009375 16.78515625 33.421875 C19.36260783 28.54875112 22.18977959 24.92998183 27 22.125 C33.26461704 21.00315908 39.69663574 21.60559766 46 22.125 C46.64257812 23.93823242 46.64257812 23.93823242 47 26.125 C45.23785634 28.4332875 43.52833514 30.38817189 41.5 32.4375 C40.94989258 33.01201904 40.39978516 33.58653809 39.83300781 34.1784668 C38.23498682 35.84060591 36.62101038 37.48530961 35 39.125 C34.22140625 39.9190625 33.4428125 40.713125 32.640625 41.53125 C31.10788932 43.07665291 29.5566701 44.60370876 28 46.125 C28.3609375 46.75148438 28.721875 47.37796875 29.09375 48.0234375 C29.5578125 48.84070313 30.021875 49.65796875 30.5 50.5 C30.9640625 51.31210937 31.428125 52.12421875 31.90625 52.9609375 C33 55.125 33 55.125 33 57.125 C33.66 57.125 34.32 57.125 35 57.125 C35.66 59.105 36.32 61.085 37 63.125 C37.66 63.125 38.32 63.125 39 63.125 C39.66 65.105 40.32 67.085 41 69.125 C41.66 69.125 42.32 69.125 43 69.125 C44.32421875 70.69921875 44.32421875 70.69921875 45.6875 72.8125 C46.37392578 73.83923828 46.37392578 73.83923828 47.07421875 74.88671875 C48.23376569 77.69018034 47.82841057 79.25819736 47 82.125 C31.13344755 83.80319305 31.13344755 83.80319305 26.19921875 79.921875 C24.19790032 77.07728259 22.5758992 74.22260081 21 71.125 C20.04697136 69.77286038 19.07165924 68.43577945 18.0625 67.125 C16 64.125 16 64.125 15 61.125 C14.34 60.795 13.68 60.465 13 60.125 C13 60.785 13 61.445 13 62.125 C12.34 62.125 11.68 62.125 11 62.125 C11 62.785 11 63.445 11 64.125 C10.34 64.125 9.68 64.125 9 64.125 C9 69.735 9 75.345 9 81.125 C6.02760209 82.61119895 3.30380422 82.25677009 0 82.25 C-1.8871875 82.25386719 -1.8871875 82.25386719 -3.8125 82.2578125 C-7 82.125 -7 82.125 -9 81.125 C-9 54.725 -9 28.325 -9 1.125 C-6.02760209 -0.36119895 -3.30380422 -0.00677009 0 0 Z " fill="#111615" transform="translate(178,333.875)"/>
<path d="M0 0 C5.74097294 7.26064225 6.2812434 13.97449459 6.29296875 22.85546875 C6.29796135 24.16950432 6.29796135 24.16950432 6.30305481 25.51008606 C6.30810302 27.35494463 6.31046379 29.19981227 6.31030273 31.04467773 C6.3125005 33.87563868 6.33070894 36.70621673 6.34960938 39.53710938 C6.35254142 41.33072783 6.35452748 43.12434814 6.35546875 44.91796875 C6.36265427 45.76691208 6.36983978 46.61585541 6.37724304 47.49052429 C6.35383858 53.45866142 6.35383858 53.45866142 4.125 55.6875 C1.54435871 55.83247985 -0.92443884 55.87427545 -3.5 55.8125 C-4.20640625 55.80347656 -4.9128125 55.79445313 -5.640625 55.78515625 C-7.38556098 55.76157603 -9.13032295 55.72570461 -10.875 55.6875 C-11.535 54.3675 -12.195 53.0475 -12.875 51.6875 C-13.926875 52.326875 -14.97875 52.96625 -16.0625 53.625 C-24.28663211 57.70067609 -33.27585805 57.46396482 -41.8515625 54.671875 C-44.03348944 53.61039703 -45.35172253 52.56976643 -46.875 50.6875 C-46.875 50.0275 -46.875 49.3675 -46.875 48.6875 C-47.535 48.6875 -48.195 48.6875 -48.875 48.6875 C-51.44208663 43.87421257 -51.32783883 38.99964782 -50.875 33.6875 C-49.875 30.5625 -49.875 30.5625 -48.875 28.6875 C-48.215 28.6875 -47.555 28.6875 -46.875 28.6875 C-46.48248047 27.76130859 -46.48248047 27.76130859 -46.08203125 26.81640625 C-43.61033556 22.45694299 -38.44758611 21.15086957 -33.87890625 19.8046875 C-26.57687394 17.9989028 -19.37984231 17.07964491 -11.875 16.6875 C-12.64979736 13.69597418 -12.64979736 13.69597418 -13.875 10.6875 C-17.58863967 9.44962011 -21.02271139 8.99529189 -24.875 9.6875 C-27.79290525 11.9379197 -27.79290525 11.9379197 -29.875 14.6875 C-31.875 16.6875 -31.875 16.6875 -35.3515625 16.8828125 C-36.73450968 16.86951493 -38.11738654 16.84566232 -39.5 16.8125 C-40.55960937 16.79896484 -40.55960937 16.79896484 -41.640625 16.78515625 C-43.38556098 16.76157603 -45.13032295 16.72570461 -46.875 16.6875 C-46.875 13.3875 -46.875 10.0875 -46.875 6.6875 C-46.215 6.6875 -45.555 6.6875 -44.875 6.6875 C-44.83375 6.130625 -44.7925 5.57375 -44.75 5 C-43.22759316 0.9764962 -39.64777844 -1.30106002 -35.9921875 -3.38671875 C-25.06253025 -8.16592312 -9.48347055 -7.62800892 0 0 Z M-31.67578125 34.16796875 C-33.10203213 35.62767704 -33.10203213 35.62767704 -32.75 37.6875 C-31.71307237 40.0576203 -31.01738203 41.20999515 -28.875 42.6875 C-24.17763212 43.45218779 -20.72343991 42.15637976 -16.64453125 39.96484375 C-13.92763755 38.00364234 -12.93682421 35.80660861 -11.875 32.6875 C-11.875 31.6975 -11.875 30.7075 -11.875 29.6875 C-18.58359203 29.31480044 -26.26467685 29.71936014 -31.67578125 34.16796875 Z " fill="#131817" transform="translate(322.875,360.3125)"/>
<path d="M0 0 C1.73200905 -0.00956978 1.73200905 -0.00956978 3.49900818 -0.01933289 C4.75625198 -0.02044571 6.01349579 -0.02155853 7.30883789 -0.02270508 C8.5900502 -0.02603348 9.87126251 -0.02936188 11.19129944 -0.03279114 C13.90748944 -0.03878825 16.62364759 -0.04063045 19.33984375 -0.04003906 C22.82490006 -0.03993742 26.30975269 -0.05358849 29.7947607 -0.07081127 C33.11195647 -0.08458699 36.42911384 -0.08401957 39.74633789 -0.08520508 C41.00155746 -0.09239059 42.25677704 -0.09957611 43.55003357 -0.10697937 C45.28677086 -0.10236443 45.28677086 -0.10236443 47.05859375 -0.09765625 C48.59295326 -0.09979378 48.59295326 -0.09979378 50.15830994 -0.10197449 C52.59399414 0.14526367 52.59399414 0.14526367 54.59399414 2.14526367 C54.82446289 5.11401367 54.82446289 5.11401367 54.78149414 8.64526367 C54.77504883 9.81057617 54.76860352 10.97588867 54.76196289 12.17651367 C54.59399414 15.14526367 54.59399414 15.14526367 53.59399414 17.14526367 C46.99399414 17.14526367 40.39399414 17.14526367 33.59399414 17.14526367 C33.60970459 19.99223877 33.60970459 19.99223877 33.62573242 22.89672852 C33.65794869 29.15919865 33.68094824 35.42164921 33.69761848 41.68417931 C33.70806735 45.48212679 33.7222465 49.27998485 33.74487305 53.07788086 C33.76656235 56.74127713 33.77855445 60.40458724 33.78374863 64.06804276 C33.78745145 65.46752911 33.79468191 66.86701062 33.80545425 68.26646042 C33.81991639 70.22259698 33.82081061 72.17881976 33.82104492 74.13500977 C33.82548615 75.24975677 33.82992737 76.36450378 33.83450317 77.51303101 C33.59399414 80.14526367 33.59399414 80.14526367 31.59399414 82.14526367 C29.05170255 82.31727652 26.63249418 82.37783984 24.09399414 82.33276367 C23.05952148 82.33179688 23.05952148 82.33179688 22.00415039 82.33081055 C16.87510463 82.28581892 16.87510463 82.28581892 14.59399414 81.14526367 C14.59399414 60.02526367 14.59399414 38.90526367 14.59399414 17.14526367 C7.66399414 17.14526367 0.73399414 17.14526367 -6.40600586 17.14526367 C-6.42663086 14.52588867 -6.44725586 11.90651367 -6.46850586 9.20776367 C-6.47760986 8.38155518 -6.48671387 7.55534668 -6.49609375 6.70410156 C-6.5032453 4.85092608 -6.45629106 2.9977706 -6.40600586 1.14526367 C-4.67785104 -0.58289115 -2.35504347 0.00878276 0 0 Z " fill="#151A1A" transform="translate(82.406005859375,333.854736328125)"/>
<path d="M0 0 C1.13780411 -0.00315216 2.27560822 -0.00630432 3.44789124 -0.009552 C5.29790993 -0.00651566 5.29790993 -0.00651566 7.18530273 -0.00341797 C8.44527573 -0.00437469 9.70524872 -0.00533142 11.00340271 -0.00631714 C13.67076022 -0.00699864 16.33802657 -0.00564559 19.00537109 -0.00097656 C22.43102711 0.00472641 25.85660488 0.0014369 29.28225803 -0.00454903 C32.54160912 -0.00902207 35.80095063 -0.00589475 39.06030273 -0.00341797 C40.29567276 -0.0054422 41.53104279 -0.00746643 42.80384827 -0.009552 C43.93850021 -0.00639984 45.07315216 -0.00324768 46.2421875 0 C47.74870628 0.00119339 47.74870628 0.00119339 49.28565979 0.00241089 C51.55639648 0.12939453 51.55639648 0.12939453 52.55639648 1.12939453 C52.62965084 3.82808503 52.64862 6.4944201 52.61889648 9.19189453 C52.59827148 11.81126953 52.57764648 14.43064453 52.55639648 17.12939453 C45.62639648 17.12939453 38.69639648 17.12939453 31.55639648 17.12939453 C31.66467773 21.11259766 31.66467773 21.11259766 31.77514648 25.17626953 C31.84527763 27.8243654 31.91449979 30.47248363 31.98364258 33.12060547 C32.03120155 34.92401602 32.07966596 36.72740298 32.12915039 38.53076172 C32.29884672 44.72987247 32.44239201 50.92900438 32.55639648 57.12939453 C32.57412109 58.05550537 32.5918457 58.98161621 32.61010742 59.93579102 C32.65672525 62.67220971 32.68734114 65.40832891 32.71264648 68.14501953 C32.72751099 68.97475281 32.74237549 69.80448608 32.75769043 70.65936279 C32.77882879 74.94989353 32.55503853 78.21686547 30.55639648 82.12939453 C27.91049634 82.15624132 25.26486553 82.1761581 22.61889648 82.19189453 C21.86415039 82.20027344 21.1094043 82.20865234 20.33178711 82.21728516 C18.40645335 82.22591894 16.48104068 82.18163786 14.55639648 82.12939453 C13.55639648 81.12939453 13.55639648 81.12939453 13.43614197 78.57945251 C13.43836258 77.44472 13.44058319 76.30998749 13.44287109 75.14086914 C13.44294662 73.85961655 13.44302216 72.57836395 13.44309998 71.25828552 C13.44820739 69.84943605 13.4534234 68.44058698 13.45874023 67.03173828 C13.46060446 65.59827219 13.46202834 64.16480546 13.46302795 62.7313385 C13.46685276 58.95179496 13.47668272 55.17228963 13.48773193 51.39276123 C13.49794686 47.53870155 13.50252575 43.68463571 13.50756836 39.83056641 C13.51830503 32.26348965 13.53590152 24.6964523 13.55639648 17.12939453 C6.62639648 17.12939453 -0.30360352 17.12939453 -7.44360352 17.12939453 C-7.44360352 11.84939453 -7.44360352 6.56939453 -7.44360352 1.12939453 C-4.83486096 -0.17497675 -2.92120875 0.00231221 0 0 Z " fill="#0F1514" transform="translate(227.443603515625,333.87060546875)"/>
<path d="M0 0 C0.70253906 0.00386719 1.40507812 0.00773437 2.12890625 0.01171875 C2.83144531 0.00785156 3.53398437 0.00398438 4.2578125 0 C9.50229247 0.01010497 9.50229247 0.01010497 10.62890625 1.13671875 C10.72924491 3.62625572 10.76508568 6.08806828 10.75830078 8.578125 C10.7600531 9.35695038 10.76180542 10.13577576 10.76361084 10.9382019 C10.76802974 13.52522986 10.76509124 16.11219004 10.76171875 18.69921875 C10.76239178 20.48901381 10.76336179 22.27880877 10.76461792 24.06860352 C10.76609494 27.82471586 10.76394019 31.58080447 10.75927734 35.33691406 C10.75358005 40.16272368 10.75685903 44.9884777 10.76284981 49.81428528 C10.7664553 53.51160098 10.76531689 57.20890339 10.76272202 60.90621948 C10.76205271 62.68610643 10.76288128 64.46599457 10.76520157 66.24588013 C10.7677279 68.72905697 10.76388779 71.21214249 10.75830078 73.6953125 C10.76032501 74.43820526 10.76234924 75.18109802 10.76443481 75.94650269 C10.74316887 81.02245613 10.74316887 81.02245613 9.62890625 82.13671875 C7.11754521 82.23646907 4.6398721 82.27554058 2.12890625 82.26171875 C1.42636719 82.26558594 0.72382813 82.26945312 0 82.2734375 C-5.24447997 82.26333253 -5.24447997 82.26333253 -6.37109375 81.13671875 C-6.47143241 78.64718178 -6.50727318 76.18536922 -6.50048828 73.6953125 C-6.5022406 72.91648712 -6.50399292 72.13766174 -6.50579834 71.3352356 C-6.51021724 68.74820764 -6.50727874 66.16124746 -6.50390625 63.57421875 C-6.50457928 61.78442369 -6.50554929 59.99462873 -6.50680542 58.20483398 C-6.50828244 54.44872164 -6.50612769 50.69263303 -6.50146484 46.93652344 C-6.49576755 42.11071382 -6.49904653 37.2849598 -6.50503731 32.45915222 C-6.5086428 28.76183652 -6.50750439 25.06453411 -6.50490952 21.36721802 C-6.50424021 19.58733107 -6.50506878 17.80744293 -6.50738907 16.02755737 C-6.5099154 13.54438053 -6.50607529 11.06129501 -6.50048828 8.578125 C-6.50251251 7.83523224 -6.50453674 7.09233948 -6.50662231 6.32693481 C-6.4809408 0.1970329 -6.14191922 0.01183414 0 0 Z " fill="#0F1414" transform="translate(344.37109375,333.86328125)"/>
<path d="M0 0 C0.69416016 -0.01224609 1.38832031 -0.02449219 2.10351562 -0.03710938 C3.92470901 -0.04239842 5.7453692 0.06580793 7.5625 0.1875 C10.13809128 2.76309128 9.81528679 3.7606668 9.82128906 7.33984375 C9.82759338 8.41435791 9.83389771 9.48887207 9.84039307 10.59594727 C9.8363446 11.76053467 9.83229614 12.92512207 9.828125 14.125 C9.83003845 15.31601318 9.8319519 16.50702637 9.83392334 17.73413086 C9.8352863 20.25602428 9.83158216 22.77792469 9.82324219 25.29980469 C9.81254453 29.17138349 9.82313406 33.04249822 9.8359375 36.9140625 C9.83461593 39.35937603 9.83205358 41.80468927 9.828125 44.25 C9.83217346 45.4145874 9.83622192 46.5791748 9.84039307 47.77905273 C9.83408875 48.85356689 9.82778442 49.92808105 9.82128906 51.03515625 C9.81890228 52.4584021 9.81890228 52.4584021 9.81646729 53.91040039 C9.5625 56.1875 9.5625 56.1875 7.5625 58.1875 C4.99957683 58.35913731 2.55904143 58.42014558 0 58.375 C-0.69802734 58.37435547 -1.39605469 58.37371094 -2.11523438 58.37304688 C-7.29718842 58.32781158 -7.29718842 58.32781158 -8.4375 57.1875 C-8.53637792 55.44367465 -8.56549032 53.69584457 -8.56689453 51.94921875 C-8.57004669 50.83135986 -8.57319885 49.71350098 -8.57644653 48.56176758 C-8.5744223 47.34513428 -8.57239807 46.12850098 -8.5703125 44.875 C-8.57126923 43.63580811 -8.57222595 42.39661621 -8.57321167 41.11987305 C-8.57389374 38.49361719 -8.57253538 35.86745367 -8.56787109 33.24121094 C-8.56217381 29.86821286 -8.56545302 26.49529435 -8.57144356 23.12229919 C-8.5759177 19.91486323 -8.57278882 16.707437 -8.5703125 13.5 C-8.57233673 12.2833667 -8.57436096 11.0667334 -8.57644653 9.81323242 C-8.57329437 8.69537354 -8.57014221 7.57751465 -8.56689453 6.42578125 C-8.56609894 5.43618408 -8.56530334 4.44658691 -8.56448364 3.42700195 C-8.28732971 -1.46092496 -3.8633497 0.00356727 0 0 Z " fill="#171C1B" transform="translate(151.4375,357.8125)"/>
<path d="M0 0 C0 0.33 0 0.66 0 1 C-2.31 1 -4.62 1 -7 1 C-7 1.66 -7 2.32 -7 3 C-7.66 3.66 -8.32 4.32 -9 5 C-8.6814823 7.10820797 -8.6814823 7.10820797 -8 9 C-6.02 9 -4.04 9 -2 9 C-2 9.66 -2 10.32 -2 11 C0.31 11 2.62 11 5 11 C5 12.65 5 14.3 5 16 C4.01 16.495 4.01 16.495 3 17 C3.33 15.35 3.66 13.7 4 12 C1.41379168 12.42401788 -1.16810219 12.8635714 -3.75 13.3125 C-4.47960937 13.43044922 -5.20921875 13.54839844 -5.9609375 13.66992188 C-10.03109895 14.3914505 -12.88808934 15.07644183 -16 18 C-15.42655063 20.86724686 -15.1385485 21.8614515 -13 24 C-8.09371118 24.55753282 -5.29260971 23.24386416 -1 21 C-0.34 21.33 0.32 21.66 1 22 C1 22.99 1 23.98 1 25 C-0.98 25.99 -0.98 25.99 -3 27 C-3 28.32 -3 29.64 -3 31 C-1.02 31.66 0.96 32.32 3 33 C-2.14089003 37.97505487 -7.56600852 38.68781896 -14.4375 39.3125 C-19.69803478 38.85104958 -25.62205318 37.9592214 -29.796875 34.51953125 C-31 33 -31 33 -31 31 C-31.66 31 -32.32 31 -33 31 C-35.56708663 26.18671257 -35.45283883 21.31214782 -35 16 C-34 12.875 -34 12.875 -33 11 C-32.34 11 -31.68 11 -31 11 C-30.73832031 10.38253906 -30.47664063 9.76507813 -30.20703125 9.12890625 C-27.71184526 4.72801187 -22.47205993 3.4308021 -17.86328125 2.08203125 C-11.79027315 0.57964946 -6.25011804 -0.367654 0 0 Z " fill="#191D1C" transform="translate(307,378)"/>
<path d="M0 0 C0.66 0.66 1.32 1.32 2 2 C1.34 2 0.68 2 0 2 C0 1.34 0 0.68 0 0 Z M4 0 C4.33 0.66 4.66 1.32 5 2 C5.99 1.67 6.98 1.34 8 1 C9.15806862 4.47420587 8.61939623 5.64241922 7.14453125 8.875 C5.80494628 11.36214753 4.26172409 13.6543712 2.6875 16 C-1.62965419 22.58595649 -4.29168494 29.64885911 -7 37 C-7.66 37 -8.32 37 -9 37 C-9.33 37.99 -9.66 38.98 -10 40 C-12.49223987 39.00310405 -13.76416902 38.38477686 -15.1875 36.0625 C-15.84445608 34.39484226 -16.43319548 32.70041355 -17 31 C-17.66 31 -18.32 31 -19 31 C-18.96395721 22.69213665 -16.3463261 16.991338 -12 10 C-11.01 10 -10.02 10 -9 10 C-8.731875 9.236875 -8.46375 8.47375 -8.1875 7.6875 C-7.0364442 5.08247899 -6.19546244 3.75636995 -4 2 C-1 1 -1 1 1.1875 1.9375 C2.0846875 2.4634375 2.0846875 2.4634375 3 3 C3.33 2.01 3.66 1.02 4 0 Z " fill="#0B1211" transform="translate(165,128)"/>
<path d="M0 0 C0 3 0 3 -2 6 C-2 6.99 -2 7.98 -2 9 C-0.35 8.34 1.3 7.68 3 7 C3.495 8.485 3.495 8.485 4 10 C3.67 10.33 3.34 10.66 3 11 C5.475 11.495 5.475 11.495 8 12 C5.19195732 14.96404505 2.81684226 17.44499019 -1 19 C-1 19.66 -1 20.32 -1 21 C-1.66 21 -2.32 21 -3 21 C-3 21.66 -3 22.32 -3 23 C-5.52892721 25.73397536 -7.89595133 27.93063422 -11 30 C-11 28.35 -11 26.7 -11 25 C-12.32 24.67 -13.64 24.34 -15 24 C-15.33 24.66 -15.66 25.32 -16 26 C-16.886875 25.71125 -17.77375 25.4225 -18.6875 25.125 C-19.780625 25.08375 -20.87375 25.0425 -22 25 C-24.52253602 27.52253602 -26.40402104 29.80804208 -28 33 C-28.66 33 -29.32 33 -30 33 C-26.85566945 24.26914041 -19.59363325 16.41173992 -13 10 C-12.34 10 -11.68 10 -11 10 C-11 9.34 -11 8.68 -11 8 C-7.53846154 5 -7.53846154 5 -5 5 C-5 4.34 -5 3.68 -5 3 C-2.5 1.375 -2.5 1.375 0 0 Z M-19 23 C-19 23.66 -19 24.32 -19 25 C-18.34 24.67 -17.68 24.34 -17 24 C-17.66 23.67 -18.32 23.34 -19 23 Z " fill="#050E0E" transform="translate(184,105)"/>
<path d="M0 0 C2.72300497 3.11200568 2.96108979 5.25957158 3.33984375 9.28125 C3.16747307 11.7916743 2.44706908 13.34353933 1.1875 15.5 C0.5275 15.5 -0.1325 15.5 -0.8125 15.5 C-0.8125 16.16 -0.8125 16.82 -0.8125 17.5 C-5.45658533 19.04802844 -9.27209825 19.22103912 -13.75 17.125 C-14.430625 16.58875 -15.11125 16.0525 -15.8125 15.5 C-15.8125 14.84 -15.8125 14.18 -15.8125 13.5 C-16.4725 13.5 -17.1325 13.5 -17.8125 13.5 C-18.43605658 4.42378753 -18.43605658 4.42378753 -16.125 1 C-10.30224441 -2.77692254 -6.28990092 -3.35461382 0 0 Z " fill="#0F1413" transform="translate(158.8125,335.5)"/>
<path d="M0 0 C0 0.99 0 1.98 0 3 C-3.0080208 6.0080208 -5.85463326 6.5289356 -10 7 C-10.33 7.99 -10.66 8.98 -11 10 C-12.32 10 -13.64 10 -15 10 C-15 15.61 -15 21.22 -15 27 C-14.34 27 -13.68 27 -13 27 C-12.93941406 27.85464844 -12.87882813 28.70929688 -12.81640625 29.58984375 C-12.73261719 30.69457031 -12.64882812 31.79929688 -12.5625 32.9375 C-12.48128906 34.03964844 -12.40007812 35.14179688 -12.31640625 36.27734375 C-12.29581916 38.91109903 -12.29581916 38.91109903 -11 40 C-10.92755947 42.01964199 -10.91622812 44.04167124 -10.9375 46.0625 C-10.94652344 47.16722656 -10.95554688 48.27195312 -10.96484375 49.41015625 C-10.97644531 50.26480469 -10.98804688 51.11945313 -11 52 C-6.72844281 51.91807228 -2.45820576 51.8053279 1.8125 51.6875 C3.6059082 51.65366211 3.6059082 51.65366211 5.43554688 51.61914062 C12.18863643 51.41673195 18.16770027 50.73080583 24.60424805 48.63208008 C27.16318554 47.95694616 29.36531025 47.89055137 32 48 C32 47.34 32 46.68 32 46 C33.32 46 34.64 46 36 46 C36 45.34 36 44.68 36 44 C37.98 44 39.96 44 42 44 C38.53257066 47.04955965 34.71944095 48.26571301 30.375 49.5625 C29.71371094 49.77068359 29.05242187 49.97886719 28.37109375 50.19335938 C19.2341832 52.99055176 10.6236689 54.31698126 1.0625 54.1875 C0.13115234 54.18685547 -0.80019531 54.18621094 -1.75976562 54.18554688 C-8.57624379 54.14125207 -8.57624379 54.14125207 -12 53 C-13.31275302 46.41074453 -14.28254958 39.9196519 -14.75390625 33.21484375 C-14.87505478 30.96180264 -14.87505478 30.96180264 -16 29 C-16.20670086 27.10811296 -16.36660725 25.21096469 -16.5 23.3125 C-16.82068698 18.80570259 -17.35747309 14.49768834 -18 10 C-12.06 6.7 -6.12 3.4 0 0 Z " fill="#B8284F" transform="translate(240,223)"/>
<path d="M0 0 C0.99 0.66 1.98 1.32 3 2 C3 5 3 5 1.56640625 6.5078125 C0.57447266 7.30832031 0.57447266 7.30832031 -0.4375 8.125 C-6.39988451 13.12536857 -12.06183724 18.48226173 -16.9375 24.5625 C-17.618125 25.366875 -18.29875 26.17125 -19 27 C-19.66 27 -20.32 27 -21 27 C-21.33 27.99 -21.66 28.98 -22 30 C-22.33 28.68 -22.66 27.36 -23 26 C-22.34 25.67 -21.68 25.34 -21 25 C-21.33 24.01 -21.66 23.02 -22 22 C-17.5 17.5 -17.5 17.5 -13 13 C-11.948125 11.88625 -11.948125 11.88625 -10.875 10.75 C-9 9 -9 9 -7 9 C-7 8.34 -7 7.68 -7 7 C-5.35 6.67 -3.7 6.34 -2 6 C-2.33 5.01 -2.66 4.02 -3 3 C-2.34 3 -1.68 3 -1 3 C-0.67 2.01 -0.34 1.02 0 0 Z " fill="#4BC7BB" transform="translate(299,123)"/>
<path d="M0 0 C1.04449911 3.13349732 0.93423645 3.98968256 0 7 C0.66 7 1.32 7 2 7 C2 7.66 2 8.32 2 9 C3.2065625 9.433125 3.2065625 9.433125 4.4375 9.875 C7 11 7 11 8 13 C7.34 13 6.68 13 6 13 C6 13.66 6 14.32 6 15 C5.01 14.67 4.02 14.34 3 14 C2.01 14.33 1.02 14.66 0 15 C-2.00636471 14.70740515 -4.00714063 14.37366113 -6 14 C-6.99 14 -7.98 14 -9 14 C-9.99 13.67 -10.98 13.34 -12 13 C-11.34 13 -10.68 13 -10 13 C-10 12.34 -10 11.68 -10 11 C-9.34 11 -8.68 11 -8 11 C-8 10.34 -8 9.68 -8 9 C-7.34 9 -6.68 9 -6 9 C-5.7525 8.443125 -5.505 7.88625 -5.25 7.3125 C-3.78393985 4.60028873 -1.97010529 2.36412635 0 0 Z " fill="#030A0A" transform="translate(314,240)"/>
<path d="M0 0 C6.94456892 5.52730996 12.90205101 12.04515783 17 20 C17 20.66 17 21.32 17 22 C16.34 22 15.68 22 15 22 C14.69707031 21.41992188 14.39414062 20.83984375 14.08203125 20.2421875 C9.99103466 11.77131617 9.99103466 11.77131617 2.90625 6.19140625 C0.96025276 5.69462879 -1.01983547 5.33562111 -3 5 C-3 5.99 -3 6.98 -3 8 C-3.66 8 -4.32 8 -5 8 C-5.226875 8.5775 -5.45375 9.155 -5.6875 9.75 C-8.41583569 14.42714689 -13.54597064 17.09970181 -18 20 C-16.6489735 16.98984706 -15.13664313 14.88032534 -12.8125 12.546875 C-12.19632812 11.928125 -11.58015625 11.309375 -10.9453125 10.671875 C-10.30335938 10.03765625 -9.66140625 9.4034375 -9 8.75 C-8.03707031 7.77546875 -8.03707031 7.77546875 -7.0546875 6.78125 C-6.43851562 6.16765625 -5.82234375 5.5540625 -5.1875 4.921875 C-4.62417969 4.36081055 -4.06085938 3.79974609 -3.48046875 3.22167969 C-2 2 -2 2 0 2 C0 1.34 0 0.68 0 0 Z " fill="#CE315A" transform="translate(302,126)"/>
<path d="M0 0 C-0.33 0.66 -0.66 1.32 -1 2 C-4.78306433 1.61397303 -7.77966869 1.10169138 -11.25 -0.5 C-19.74181763 -4.3641687 -30.58202275 -3.12896334 -39.6875 -3.0625 C-40.87794922 -3.05798828 -42.06839844 -3.05347656 -43.29492188 -3.04882812 C-46.19666936 -3.03717452 -49.09830626 -3.02081559 -52 -3 C-38.60442881 -11.93038079 -13.72418457 -5.05627852 0 0 Z " fill="#42B6AA" transform="translate(276,108)"/>
<path d="M0 0 C0.66 0.66 1.32 1.32 2 2 C1.34 2 0.68 2 0 2 C0 1.34 0 0.68 0 0 Z M4 0 C4.33 0.66 4.66 1.32 5 2 C5.99 1.67 6.98 1.34 8 1 C9.2077558 4.62326739 8.54311128 5.64146369 7 9 C0.375 10.25 0.375 10.25 -3 8 C-3 7.34 -3 6.68 -3 6 C-3.99 6.33 -4.98 6.66 -6 7 C-5.34 5.02 -4.68 3.04 -4 1 C-1.61435923 1.57584432 0.66682784 2.22227595 3 3 C3.33 2.01 3.66 1.02 4 0 Z M-5 8 C-4.34 8 -3.68 8 -3 8 C-3.33 8.99 -3.66 9.98 -4 11 C-4.33 10.01 -4.66 9.02 -5 8 Z " fill="#030A0A" transform="translate(165,128)"/>
<path d="M0 0 C0.33 0 0.66 0 1 0 C3.78786526 22.43781879 2.0783438 43.31677307 -10 63 C-10.33 63 -10.66 63 -11 63 C-11 61.35 -11 59.7 -11 58 C-10.34 58 -9.68 58 -9 58 C-9 57.01 -9 56.02 -9 55 C-8.34 55 -7.68 55 -7 55 C-6.67 52.69 -6.34 50.38 -6 48 C-5.34 48 -4.68 48 -4 48 C-3.80083984 46.44539063 -3.80083984 46.44539063 -3.59765625 44.859375 C-3.0823332 41.53166798 -2.32435293 38.48894112 -1.4375 35.25 C1.14473246 23.74276989 0.24729157 11.72035237 0 0 Z " fill="#CC2F58" transform="translate(328,172)"/>
<path d="M0 0 C2.56657128 2.56657128 2.34000672 3.87287369 2.5625 7.4375 C2.76751306 10.57963901 2.99964773 12.99894319 4 16 C4.12781786 18.67394964 4.04391871 21.32095857 4 24 C2.92621094 23.72285156 1.85242188 23.44570313 0.74609375 23.16015625 C-0.69005529 22.79407904 -2.12625599 22.42820442 -3.5625 22.0625 C-4.26697266 21.88009766 -4.97144531 21.69769531 -5.69726562 21.50976562 C-14.95830313 18.87786843 -14.95830313 18.87786843 -24 21 C-23.67 19.35 -23.34 17.7 -23 16 C-16.96705946 16.3652511 -11.66148149 17.19880142 -6.0078125 19.37890625 C-3.7133898 20.19701479 -3.7133898 20.19701479 0 20 C0 13.4 0 6.8 0 0 Z " fill="#4CBAAF" transform="translate(224,252)"/>
<path d="M0 0 C2.34894745 3.69004201 2.23059746 6.8671103 2.1953125 11.171875 C2.1924826 11.8542926 2.18965271 12.53671021 2.18673706 13.23980713 C2.17558098 15.41005307 2.15048557 17.57987971 2.125 19.75 C2.11496426 21.22525444 2.10583944 22.70051537 2.09765625 24.17578125 C2.07565687 27.78398942 2.04115883 31.39195375 2 35 C2.66 35 3.32 35 4 35 C4.144375 36.134375 4.28875 37.26875 4.4375 38.4375 C4.61171478 41.80777201 4.61171478 41.80777201 6 43 C6.04080783 44.99958364 6.04254356 47.00045254 6 49 C0.04568509 43.04568509 -0.72614803 29.10352887 -1 21 C-1.02835938 20.17113281 -1.05671875 19.34226563 -1.0859375 18.48828125 C-1.18335432 12.28282992 -0.65651842 6.16658372 0 0 Z " fill="#47B4A9" transform="translate(155,173)"/>
<path d="M0 0 C0 0.66 0 1.32 0 2 C0.66 2.33 1.32 2.66 2 3 C-0.05233685 5.2477975 -1.00667261 6.0022242 -4 7 C-5.44870619 8.85804317 -5.44870619 8.85804317 -6.6875 11.0625 C-7.12449219 11.79597656 -7.56148438 12.52945313 -8.01171875 13.28515625 C-8.33785156 13.85105469 -8.66398437 14.41695312 -9 15 C-13.8274799 13.58707905 -17.7162359 11.57025846 -22 9 C-20.375 8.25 -20.375 8.25 -18 8 C-14.75 9.9375 -14.75 9.9375 -12 12 C-11.34 10.68 -10.68 9.36 -10 8 C-9.01 8.33 -8.02 8.66 -7 9 C-6.9175 8.071875 -6.835 7.14375 -6.75 6.1875 C-6 3 -6 3 -4.0625 1.125 C-2 0 -2 0 0 0 Z " fill="#5EBAB4" transform="translate(272,154)"/>
<path d="M0 0 C4 0 4 0 6.25 2 C8.64155137 6.09980235 8.44889088 8.2866458 8 13 C6.85866712 16.51910971 5.1413288 18.09866941 2 20 C-0.0212102 20.79434392 -2.05848605 21.52036181 -4.109375 22.234375 C-6.17198841 22.96960259 -6.17198841 22.96960259 -8.25 24.75 C-8.8275 25.1625 -9.405 25.575 -10 26 C-12.109375 25.578125 -12.109375 25.578125 -14 25 C-12.87980469 24.40832031 -11.75960938 23.81664062 -10.60546875 23.20703125 C-9.13244428 22.40953392 -7.65980817 21.61131896 -6.1875 20.8125 C-5.44951172 20.42513672 -4.71152344 20.03777344 -3.95117188 19.63867188 C0.23488148 17.34676031 3.12652537 15.60934235 5 11 C4.92716612 6.84846877 4.64002035 4.75638769 1.9375 1.5625 C0.9784375 0.7890625 0.9784375 0.7890625 0 0 Z " fill="#CD2C55" transform="translate(283,181)"/>
<path d="M0 0 C7.84914211 3.72613769 15.32168773 7.33795264 22 13 C21.34 13.66 20.68 14.32 20 15 C19.34 14.34 18.68 13.68 18 13 C15.31160615 12.73008094 12.70858064 12.91262643 10 13 C10 12.34 10 11.68 10 11 C9.01 11 8.02 11 7 11 C7 10.34 7 9.68 7 9 C7.99 9 8.98 9 10 9 C10 8.01 10 7.02 10 6 C9.36191406 5.81824219 8.72382813 5.63648437 8.06640625 5.44921875 C7.24011719 5.19785156 6.41382813 4.94648437 5.5625 4.6875 C4.73878906 4.44386719 3.91507812 4.20023437 3.06640625 3.94921875 C2.04353516 3.47935547 2.04353516 3.47935547 1 3 C0.67 2.01 0.34 1.02 0 0 Z " fill="#43C2B6" transform="translate(277,109)"/>
<path d="M0 0 C3.3 0 6.6 0 10 0 C9.01 0.33 8.02 0.66 7 1 C7.33 1.99 7.66 2.98 8 4 C6.0625 6.6875 6.0625 6.6875 4 9 C1.625 8.8125 1.625 8.8125 -1 8 C-2.3125 5.4375 -2.3125 5.4375 -3 3 C-2.01 2.67 -1.02 2.34 0 2 C0 1.34 0 0.68 0 0 Z " fill="#030809" transform="translate(300,379)"/>
<path d="M0 0 C0.66 0.33 1.32 0.66 2 1 C0.35 3.64 -1.3 6.28 -3 9 C-1.35 9.33 0.3 9.66 2 10 C2 10.99 2 11.98 2 13 C3.32 13 4.64 13 6 13 C6 13.66 6 14.32 6 15 C6.598125 15.144375 7.19625 15.28875 7.8125 15.4375 C9.56150404 15.8872439 11.28677023 16.42892341 13 17 C14.1875 19.0625 14.1875 19.0625 15 21 C10.70868194 19.41122957 6.73756925 17.35042765 2.75 15.125 C2.11320312 14.78597656 1.47640625 14.44695312 0.8203125 14.09765625 C-3.69764824 11.56952077 -3.69764824 11.56952077 -5.07421875 8.9765625 C-4.97668758 6.3791534 -4.16107451 5.27746035 -2.5625 3.25 C-2.08941406 2.63640625 -1.61632812 2.0228125 -1.12890625 1.390625 C-0.75636719 0.93171875 -0.38382812 0.4728125 0 0 Z " fill="#D42A55" transform="translate(268,160)"/>
<path d="M0 0 C1.32 0 2.64 0 4 0 C5.1687481 3.5062443 5.12514267 6.6477866 5.09765625 10.29296875 C5.0962413 10.99899734 5.09482635 11.70502594 5.09336853 12.43244934 C5.08777764 14.68417626 5.07522688 16.93580321 5.0625 19.1875 C5.05748382 20.71549335 5.05292112 22.24348827 5.04882812 23.77148438 C5.0378112 27.51436135 5.02055287 31.25716373 5 35 C5.77730469 34.66226563 6.55460938 34.32453125 7.35546875 33.9765625 C10.18824089 32.93048712 11.23309576 32.97522065 14 34 C10.27034861 36.03435531 8.33094958 37 4 37 C3.98541748 36.0212793 3.97083496 35.04255859 3.95581055 34.03417969 C3.89774894 30.39595374 3.8205174 26.75834164 3.73754883 23.12060547 C3.70433628 21.54746478 3.67629283 19.97420599 3.65356445 18.40087891 C3.61994972 16.13653328 3.56763376 13.87326635 3.51171875 11.609375 C3.50213387 10.55759064 3.50213387 10.55759064 3.49235535 9.48455811 C3.36969605 5.39233693 2.87379966 2.98420175 0 0 Z " fill="#53C2B7" transform="translate(175,246)"/>
<path d="M0 0 C0 0.99 0 1.98 0 3 C-3.0080208 6.0080208 -5.85463326 6.5289356 -10 7 C-10.33 7.99 -10.66 8.98 -11 10 C-12.32 10 -13.64 10 -15 10 C-15 14.95 -15 19.9 -15 25 C-15.33 25 -15.66 25 -16 25 C-16.33776684 23.2508503 -16.67003671 21.50063855 -17 19.75 C-17.185625 18.77546875 -17.37125 17.8009375 -17.5625 16.796875 C-18 14 -18 14 -18 10 C-12.06 6.7 -6.12 3.4 0 0 Z " fill="#CE2F5C" transform="translate(240,223)"/>
<path d="M0 0 C0.66 0.99 1.32 1.98 2 3 C1.67 3.99 1.34 4.98 1 6 C0.01 6 -0.98 6 -2 6 C-2.33 7.65 -2.66 9.3 -3 11 C-3.99 11.33 -4.98 11.66 -6 12 C-6.33 14.31 -6.66 16.62 -7 19 C-7.66 19 -8.32 19 -9 19 C-9 19.66 -9 20.32 -9 21 C-9.66 21 -10.32 21 -11 21 C-9.51730247 13.39001027 -4.4065031 6.27079287 0 0 Z " fill="#47BAAE" transform="translate(172,136)"/>
<path d="M0 0 C-2.20979308 2.81939117 -4.40062046 5.53058944 -7 8 C-6.34 8.33 -5.68 8.66 -5 9 C-6.32 9.33 -7.64 9.66 -9 10 C-9.33 8.68 -9.66 7.36 -10 6 C-11.65 6 -13.3 6 -15 6 C-12.61827612 3.26455475 -10.29334709 2.07454642 -6.9375 0.75 C-6.05964844 0.39421875 -5.18179688 0.0384375 -4.27734375 -0.328125 C-2 -1 -2 -1 0 0 Z " fill="#313533" transform="translate(209,94)"/>
<path d="M0 0 C0.99 0.33 1.98 0.66 3 1 C3 2.98 3 4.96 3 7 C2.34 7 1.68 7 1 7 C0.67 7.99 0.34 8.98 0 10 C-1.32 9.34 -2.64 8.68 -4 8 C-4 6.35 -4 4.7 -4 3 C-2.68 2.67 -1.36 2.34 0 2 C0 1.34 0 0.68 0 0 Z " fill="#040A0A" transform="translate(155,158)"/>
<path d="M0 0 C0.33 1.32 0.66 2.64 1 4 C0.34 4 -0.32 4 -1 4 C-1.3403125 4.86625 -1.3403125 4.86625 -1.6875 5.75 C-4.41583569 10.42714689 -9.54597064 13.09970181 -14 16 C-12.34136495 11.67495164 -9.128959 8.90581175 -5.875 5.75 C-5.31167969 5.19570312 -4.74835938 4.64140625 -4.16796875 4.0703125 C-2.78313972 2.70895515 -1.39216796 1.35385141 0 0 Z " fill="#BF577A" transform="translate(298,130)"/>
<path d="M0 0 C0.33 0.66 0.66 1.32 1 2 C1.66 2 2.32 2 3 2 C3.06058594 2.85464844 3.12117187 3.70929688 3.18359375 4.58984375 C3.26738281 5.69457031 3.35117188 6.79929688 3.4375 7.9375 C3.51871094 9.03964844 3.59992188 10.14179688 3.68359375 11.27734375 C3.70418084 13.91109903 3.70418084 13.91109903 5 15 C5.07244053 17.01964199 5.08377188 19.04167124 5.0625 21.0625 C5.05347656 22.16722656 5.04445312 23.27195312 5.03515625 24.41015625 C5.02355469 25.26480469 5.01195312 26.11945313 5 27 C5.66 27.33 6.32 27.66 7 28 C6.01 28 5.02 28 4 28 C2.70389068 21.49428621 1.74927191 15.07351419 1.21875 8.4609375 C0.96525831 5.60915602 0.53210962 2.8125794 0 0 Z " fill="#C05376" transform="translate(224,248)"/>
<path d="M0 0 C0.33 0.99 0.66 1.98 1 3 C0.54625 3.4125 0.0925 3.825 -0.375 4.25 C-3.00478008 7.08207086 -4 9.11817249 -4 13 C-5.75 14.125 -5.75 14.125 -8 15 C-10.25 14.125 -10.25 14.125 -12 13 C-11.34 13 -10.68 13 -10 13 C-10 12.34 -10 11.68 -10 11 C-9.34 11 -8.68 11 -8 11 C-8 10.34 -8 9.68 -8 9 C-7.34 9 -6.68 9 -6 9 C-5.7525 8.443125 -5.505 7.88625 -5.25 7.3125 C-3.78393985 4.60028873 -1.97010529 2.36412635 0 0 Z " fill="#30030C" transform="translate(314,240)"/>
<path d="M0 0 C2.56657128 2.56657128 2.34000672 3.87287369 2.5625 7.4375 C2.76751306 10.57963901 2.99964773 12.99894319 4 16 C4.12781786 18.67394964 4.04391871 21.32095857 4 24 C3.34 24 2.68 24 2 24 C2 23.01 2 22.02 2 21 C1.34 20.67 0.68 20.34 0 20 C0 13.4 0 6.8 0 0 Z " fill="#6BB6B3" transform="translate(224,252)"/>
<path d="M0 0 C1.98 0 3.96 0 6 0 C2.48195211 3.11702689 -1.45574761 4.31138736 -5.875 5.625 C-6.56980469 5.8415625 -7.26460938 6.058125 -7.98046875 6.28125 C-11.96457482 7.49673999 -15.86464188 8.41664227 -20 9 C-20 8.34 -20 7.68 -20 7 C-18.27318563 6.49193553 -16.54342021 5.99389533 -14.8125 5.5 C-13.36810547 5.08234375 -13.36810547 5.08234375 -11.89453125 4.65625 C-9.14654124 4.03322392 -6.80401584 3.87697188 -4 4 C-4 3.34 -4 2.68 -4 2 C-2.68 2 -1.36 2 0 2 C0 1.34 0 0.68 0 0 Z " fill="#D22D59" transform="translate(276,267)"/>
<path d="M0 0 C0.66 0 1.32 0 2 0 C0.65686815 3.78091617 -1.02964684 6.65651916 -3.5 9.8125 C-4.41265625 10.99779297 -4.41265625 10.99779297 -5.34375 12.20703125 C-5.8903125 12.79871094 -6.436875 13.39039063 -7 14 C-7.66 14 -8.32 14 -9 14 C-9 14.66 -9 15.32 -9 16 C-9.66 16 -10.32 16 -11 16 C-10.67 14.68 -10.34 13.36 -10 12 C-9.34 12 -8.68 12 -8 12 C-8 11.01 -8 10.02 -8 9 C-6.68 8.67 -5.36 8.34 -4 8 C-4 6.68 -4 5.36 -4 4 C-3.34 4 -2.68 4 -2 4 C-1.34 2.68 -0.68 1.36 0 0 Z " fill="#D42B57" transform="translate(315,235)"/>
<path d="M0 0 C4.41309542 3.15221101 7.00793014 6.55463907 10 11 C6.44219804 10.39009109 3.3171411 9.4216319 0 8 C0 5.36 0 2.72 0 0 Z " fill="#333633" transform="translate(315,117)"/>
<path d="M0 0 C0.33 0 0.66 0 1 0 C1.33 2.64 1.66 5.28 2 8 C2.99 8.33 3.98 8.66 5 9 C5.33 9.99 5.66 10.98 6 12 C6.33 11.34 6.66 10.68 7 10 C7.66 10 8.32 10 9 10 C8.67 11.32 8.34 12.64 8 14 C9.98 14 11.96 14 14 14 C14 14.33 14 14.66 14 15 C9.04230204 15.29162929 5.97193147 15.12940055 2 12 C2 11.34 2 10.68 2 10 C1.34 10 0.68 10 0 10 C0 6.7 0 3.4 0 0 Z " fill="#50504C" transform="translate(141,339)"/>
<path d="M0 0 C0.66 0.33 1.32 0.66 2 1 C3.99960012 1.039992 6.00047242 1.04346799 8 1 C4.52671426 3.77862859 0.9587532 5.98463473 -3 8 C-3.99 7.67 -4.98 7.34 -6 7 C-5.67 6.01 -5.34 5.02 -5 4 C-3.02 4.495 -3.02 4.495 -1 5 C-1.33 4.01 -1.66 3.02 -2 2 C-1.34 1.34 -0.68 0.68 0 0 Z " fill="#24080D" transform="translate(227,225)"/>
<path d="M0 0 C3.83422676 1.15026803 5.52584018 2.95611079 8.125 5.9375 C2.84750715 5.39898032 -1.13145564 4.16406164 -5.875 1.9375 C-2.875 -0.0625 -2.875 -0.0625 0 0 Z " fill="#4B4C4A" transform="translate(152.875,333.0625)"/>
<path d="M0 0 C0.66 0.33 1.32 0.66 2 1 C-1.06309846 3.43010662 -4.23740664 5.29170606 -7.6875 7.125 C-11.0557489 8.76269189 -11.0557489 8.76269189 -14 11 C-15.99958364 11.04080783 -18.00045254 11.04254356 -20 11 C-16.27068734 8.51379156 -12.38373797 6.43135142 -8.4375 4.3125 C-7.26670898 3.66958008 -7.26670898 3.66958008 -6.07226562 3.01367188 C-5.32525391 2.61341797 -4.57824219 2.21316406 -3.80859375 1.80078125 C-3.12595459 1.43122314 -2.44331543 1.06166504 -1.73999023 0.6809082 C-0.87869507 0.34385864 -0.87869507 0.34385864 0 0 Z " fill="#022322" transform="translate(200,273)"/>
<path d="M0 0 C1.32 0.33 2.64 0.66 4 1 C6.30844801 7.34823202 6.19818283 13.29481414 6 20 C5.67 20 5.34 20 5 20 C4.855625 18.865625 4.71125 17.73125 4.5625 16.5625 C4.38828522 13.19222799 4.38828522 13.19222799 3 12 C2.92820036 10.48071962 2.91607993 8.95832518 2.9375 7.4375 C2.94652344 6.61121094 2.95554688 5.78492188 2.96484375 4.93359375 C2.97644531 4.29550781 2.98804688 3.65742188 3 3 C2.01 2.67 1.02 2.34 0 2 C0 1.34 0 0.68 0 0 Z " fill="#78ACAF" transform="translate(218,232)"/>
<path d="M0 0 C0.99 0.66 1.98 1.32 3 2 C3 2.99 3 3.98 3 5 C1.25 6.60546875 1.25 6.60546875 -1 8.1875 C-1.7425 8.71730469 -2.485 9.24710938 -3.25 9.79296875 C-3.8275 10.19128906 -4.405 10.58960938 -5 11 C-5 10.34 -5 9.68 -5 9 C-5.66 9 -6.32 9 -7 9 C-7 8.34 -7 7.68 -7 7 C-5.35 6.67 -3.7 6.34 -2 6 C-2.33 5.01 -2.66 4.02 -3 3 C-2.34 3 -1.68 3 -1 3 C-0.67 2.01 -0.34 1.02 0 0 Z " fill="#57C1B8" transform="translate(299,123)"/>
<path d="M0 0 C0.66 0.33 1.32 0.66 2 1 C1.375 4.3125 1.375 4.3125 0 8 C-3.125 9.9375 -3.125 9.9375 -6 11 C-6 9.68 -6 8.36 -6 7 C-5.34 7 -4.68 7 -4 7 C-3.896875 6.401875 -3.79375 5.80375 -3.6875 5.1875 C-2.91123545 2.71756736 -1.92911079 1.67748765 0 0 Z " fill="#3E3F3D" transform="translate(282,360)"/>
<path d="M0 0 C6.6 0 13.2 0 20 0 C20.33 1.32 20.66 2.64 21 4 C20.01 4.66 19.02 5.32 18 6 C17.67 5.01 17.34 4.02 17 3 C17.33 2.34 17.66 1.68 18 1 C12.06 1 6.12 1 0 1 C0 0.67 0 0.34 0 0 Z " fill="#969891" transform="translate(401,356)"/>
<path d="M0 0 C0 3.54091616 -0.73837086 4.39042792 -3 7 C-3.99 7.495 -3.99 7.495 -5 8 C-5 8.66 -5 9.32 -5 10 C-6.65 9.67 -8.3 9.34 -10 9 C-6.83047153 5.73991357 -3.60062011 2.77762123 0 0 Z " fill="#E42C5D" transform="translate(290,141)"/>
<path d="M0 0 C0.99 0.99 1.98 1.98 3 3 C4.98 2.34 6.96 1.68 9 1 C6.01581671 4.32851213 3.15437231 6.3205729 -1 8 C-1.99 7.67 -2.98 7.34 -4 7 C-2.68 6.67 -1.36 6.34 0 6 C-0.2784375 4.7934375 -0.2784375 4.7934375 -0.5625 3.5625 C-0.706875 2.716875 -0.85125 1.87125 -1 1 C-0.67 0.67 -0.34 0.34 0 0 Z " fill="#2B060E" transform="translate(253,209)"/>
<path d="M0 0 C3.63 1.98 7.26 3.96 11 6 C11 6.33 11 6.66 11 7 C8 7 5 7 2 7 C1 4 1 4 0 0 Z " fill="#210B12" transform="translate(260,168)"/>
<path d="M0 0 C4.29 0.66 8.58 1.32 13 2 C12.67 3.32 12.34 4.64 12 6 C11.01 5.34 10.02 4.68 9 4 C6.71351152 3.75892674 6.71351152 3.75892674 4.3125 3.875 C3.50425781 3.89304688 2.69601563 3.91109375 1.86328125 3.9296875 C1.24839844 3.95289063 0.63351563 3.97609375 0 4 C0 2.68 0 1.36 0 0 Z " fill="#3EB6A8" transform="translate(217,145)"/>
<path d="M0 0 C0.66 0.33 1.32 0.66 2 1 C0.35 3.64 -1.3 6.28 -3 9 C-2.34 9 -1.68 9 -1 9 C-1 9.66 -1 10.32 -1 11 C-0.34 11 0.32 11 1 11 C1 11.66 1 12.32 1 13 C-1.4375 12.25 -1.4375 12.25 -4 11 C-4.8125 9.15625 -4.8125 9.15625 -5 7 C-4.00390625 5.078125 -4.00390625 5.078125 -2.5625 3.25 C-2.08941406 2.63640625 -1.61632812 2.0228125 -1.12890625 1.390625 C-0.75636719 0.93171875 -0.38382812 0.4728125 0 0 Z " fill="#BF486C" transform="translate(268,160)"/>
<path d="M0 0 C-1.22217046 4.04256383 -2.62754296 7.49288959 -5 11 C-5.33 11 -5.66 11 -6 11 C-6.36476427 4.67741935 -6.36476427 4.67741935 -4.6875 1.5625 C-3 0 -3 0 0 0 Z " fill="#011919" transform="translate(167,143)"/>
<path d="M0 0 C-1.32 0.33 -2.64 0.66 -4 1 C-4 1.99 -4 2.98 -4 4 C-4.66 4 -5.32 4 -6 4 C-6 3.34 -6 2.68 -6 2 C-7.32 2 -8.64 2 -10 2 C-10 2.66 -10 3.32 -10 4 C-12.64 4 -15.28 4 -18 4 C-17.67 3.34 -17.34 2.68 -17 2 C-11.48328169 0.47749852 -5.71937774 -0.30915555 0 0 Z " fill="#636561" transform="translate(306,354)"/>
<path d="M0 0 C1 2 1 2 0.375 3.9375 C-1.39260282 6.58890424 -3.12484052 7.66760902 -6 9 C-6.99 8.67 -7.98 8.34 -9 8 C-6.14723863 5.06799526 -3.34920216 2.35684596 0 0 Z " fill="#43BBAF" transform="translate(192,117)"/>
<path d="M0 0 C0.33 0 0.66 0 1 0 C1 5.28 1 10.56 1 16 C-1.31 16 -3.62 16 -6 16 C-4.68 15.67 -3.36 15.34 -2 15 C-1.10594786 10.01885239 -0.52537724 5.0302076 0 0 Z " fill="#1B1C19" transform="translate(279,335)"/>
<path d="M0 0 C1 2 1 2 0.3125 4.375 C-1.0992725 7.198545 -2.71004502 8.85778405 -5 11 C-5.33 11.66 -5.66 12.32 -6 13 C-6.66 13 -7.32 13 -8 13 C-6.40956621 7.91061189 -3.2553049 4.12543357 0 0 Z " fill="#646562" transform="translate(162,125)"/>
<path d="M0 0 C0 3.15081975 -0.27898465 4.41847698 -2 7 C-3.32303717 7.3721042 -4.65737935 7.70630173 -6 8 C-6.99 9.485 -6.99 9.485 -8 11 C-8.66 10.67 -9.32 10.34 -10 10 C-9.04882866 8.8274869 -8.08882991 7.66212985 -7.125 6.5 C-6.32449219 5.52546875 -6.32449219 5.52546875 -5.5078125 4.53125 C-5.01023438 4.0259375 -4.51265625 3.520625 -4 3 C-3.34 3 -2.68 3 -2 3 C-2 2.34 -2 1.68 -2 1 C-1.34 0.67 -0.68 0.34 0 0 Z " fill="#5A5B54" transform="translate(175,112)"/>
<path d="M0 0 C1.67542976 0.28604898 3.34385343 0.61781233 5 1 C5 1.66 5 2.32 5 3 C4.34 3 3.68 3 3 3 C3 3.66 3 4.32 3 5 C1.02 5.99 1.02 5.99 -1 7 C-1.04254356 5.00045254 -1.04080783 2.99958364 -1 1 C-0.67 0.67 -0.34 0.34 0 0 Z " fill="#E22557" transform="translate(299,250)"/>
<path d="M0 0 C2.31 0.66 4.62 1.32 7 2 C6.67 4.31 6.34 6.62 6 9 C3.59927045 6.11912454 1.52708963 3.43595166 0 0 Z " fill="#45BAAF" transform="translate(166,234)"/>
<path d="M0 0 C2.02350324 3.03525486 2.32124018 4.19426202 2.625 7.6875 C2.69976562 8.49574219 2.77453125 9.30398437 2.8515625 10.13671875 C2.90054687 10.75160156 2.94953125 11.36648437 3 12 C2.01 12.66 1.02 13.32 0 14 C0 9.38 0 4.76 0 0 Z " fill="#0C0505" transform="translate(331,181)"/>
<path d="M0 0 C4.21912747 0.4794463 6.79663178 1.16625119 10 4 C10.33 3.01 10.66 2.02 11 1 C11.33 1 11.66 1 12 1 C12 2.65 12 4.3 12 6 C7.24518354 5.42365861 4.02951788 3.44931479 0 1 C0 0.67 0 0.34 0 0 Z " fill="#49BDB2" transform="translate(250,162)"/>
<path d="M0 0 C0.66 0.99 1.32 1.98 2 3 C1.67 3.99 1.34 4.98 1 6 C0.01 6 -0.98 6 -2 6 C-2.33 7.32 -2.66 8.64 -3 10 C-3.99 9.67 -4.98 9.34 -6 9 C-4.02 6.03 -2.04 3.06 0 0 Z " fill="#3BB4A5" transform="translate(172,136)"/>
<path d="M0 0 C0 0.66 0 1.32 0 2 C-3.23085738 5.10162309 -6.77557234 5.80440727 -11 7 C-11.33 7.66 -11.66 8.32 -12 9 C-12.33 8.01 -12.66 7.02 -13 6 C-11.21118264 4.99491199 -9.41885304 3.99607264 -7.625 3 C-6.62726563 2.443125 -5.62953125 1.88625 -4.6015625 1.3125 C-2 0 -2 0 0 0 Z " fill="#45B4A8" transform="translate(206,110)"/>
<path d="M0 0 C0.99 0 1.98 0 3 0 C3 0.66 3 1.32 3 2 C3.66 2 4.32 2 5 2 C5.33 4.64 5.66 7.28 6 10 C5.34 10 4.68 10 4 10 C3.32845067 8.71086513 2.66291141 7.41859796 2 6.125 C1.62875 5.40570313 1.2575 4.68640625 0.875 3.9453125 C0 2 0 2 0 0 Z " fill="#45BCAF" transform="translate(161,223)"/>
<path d="M0 0 C3.99547736 0.61468882 6.77506642 2.65459376 10 5 C10 5.33 10 5.66 10 6 C3.52443609 5.38909774 3.52443609 5.38909774 1.0625 3.5625 C0 2 0 2 0 0 Z " fill="#29050B" transform="translate(274,177)"/>
<path d="M0 0 C-2.25 2.0625 -2.25 2.0625 -5 4 C-7.3125 3.75 -7.3125 3.75 -9 3 C-9 2.34 -9 1.68 -9 1 C-5.57367167 -0.61798838 -3.61944899 -1.34053666 0 0 Z " fill="#19070B" transform="translate(289,267)"/>
<path d="M0 0 C1.32 0.99 2.64 1.98 4 3 C3.01 3.495 3.01 3.495 2 4 C2.66 4.66 3.32 5.32 4 6 C0.31733897 5.40049704 -3.34543185 4.75241109 -7 4 C-7 3.67 -7 3.34 -7 3 C-5.5459375 2.814375 -5.5459375 2.814375 -4.0625 2.625 C-2.5465625 2.315625 -2.5465625 2.315625 -1 2 C-0.67 1.34 -0.34 0.68 0 0 Z " fill="#4B4C4C" transform="translate(214,282)"/>
<path d="M0 0 C0.66 0 1.32 0 2 0 C2.20086443 3.71599191 2.1519437 4.77208445 0 8 C-0.38499891 9.65549531 -0.72793135 11.3222433 -1 13 C-1.66 13 -2.32 13 -3 13 C-2.68817931 11.58318366 -2.37551263 10.16655349 -2.0625 8.75 C-1.88847656 7.96109375 -1.71445313 7.1721875 -1.53515625 6.359375 C-1.052444 4.23121297 -0.53836822 2.11467158 0 0 Z " fill="#45AEA4" transform="translate(159,159)"/>
<path d="M0 0 C1.90318884 2.85478326 2.4619099 4.41941308 3.125 7.6875 C3.29257812 8.49574219 3.46015625 9.30398437 3.6328125 10.13671875 C3.75398438 10.75160156 3.87515625 11.36648437 4 12 C3.01 12.495 3.01 12.495 2 13 C0.24252386 8.49646738 -0.19294408 4.82360189 0 0 Z " fill="#CA2D55" transform="translate(324,159)"/>
<path d="M0 0 C2.64 0 5.28 0 8 0 C2.85714286 4.42857143 2.85714286 4.42857143 -1 5 C-0.67 3.35 -0.34 1.7 0 0 Z " fill="#49BEB3" transform="translate(190,274)"/>
<path d="M0 0 C1.32 0 2.64 0 4 0 C3.8125 1.875 3.8125 1.875 3 4 C0.4375 5.25 0.4375 5.25 -2 6 C-1.34 4.02 -0.68 2.04 0 0 Z " fill="#010A05" transform="translate(188,281)"/>
<path d="M0 0 C1.65 0 3.3 0 5 0 C5.33 0.99 5.66 1.98 6 3 C4.68 3.99 3.36 4.98 2 6 C0 3 0 3 0 0 Z " fill="#010C0D" transform="translate(204,271)"/>
<path d="M0 0 C-1 2 -2 4 -3 6 C-3.66 6 -4.32 6 -5 6 C-5.33 6.66 -5.66 7.32 -6 8 C-5.814375 7.38125 -5.62875 6.7625 -5.4375 6.125 C-4.76313824 3.95839822 -4.76313824 3.95839822 -6 2 C-3 0 -3 0 0 0 Z " fill="#42443E" transform="translate(326,248)"/>
<path d="M0 0 C1.134375 0.020625 2.26875 0.04125 3.4375 0.0625 C1.33967213 2.16032787 0.0575793 2.7134396 -2.6875 3.6875 C-3.41195312 3.94789062 -4.13640625 4.20828125 -4.8828125 4.4765625 C-5.71425781 4.76660156 -5.71425781 4.76660156 -6.5625 5.0625 C-4.14811644 0.07277397 -4.14811644 0.07277397 0 0 Z " fill="#031B1D" transform="translate(205.5625,107.9375)"/>
<path d="M0 0 C0.99 0.33 1.98 0.66 3 1 C1.35 2.98 -0.3 4.96 -2 7 C-2.66 6.34 -3.32 5.68 -4 5 C-2.68 3.35 -1.36 1.7 0 0 Z " fill="#373834" transform="translate(406,371)"/>
<path d="M0 0 C0 0.99 0 1.98 0 3 C-1.75 4.125 -1.75 4.125 -4 5 C-6.25 4.125 -6.25 4.125 -8 3 C-7.34 3 -6.68 3 -6 3 C-6 2.34 -6 1.68 -6 1 C-3.92446352 0.4465236 -2.15634036 0 0 0 Z " fill="#1B050B" transform="translate(310,250)"/>
<path d="M0 0 C0 0.99 0 1.98 0 3 C-1.75 4.75 -1.75 4.75 -4 6 C-5.32 5.67 -6.64 5.34 -8 5 C-4.04 2.525 -4.04 2.525 0 0 Z " fill="#D82B57" transform="translate(240,223)"/>
<path d="M0 0 C0.66 0 1.32 0 2 0 C2 0.66 2 1.32 2 2 C4.475 2.99 4.475 2.99 7 4 C6.67 4.66 6.34 5.32 6 6 C4.02 6 2.04 6 0 6 C0 4.02 0 2.04 0 0 Z " fill="#464944" transform="translate(299,104)"/>
<path d="M0 0 C2.9719385 1.12451727 5.33440687 2.22293791 8 4 C6.02 4.33 4.04 4.66 2 5 C1.34 3.35 0.68 1.7 0 0 Z " fill="#464745" transform="translate(286,97)"/>
<path d="M0 0 C0.33 0.99 0.66 1.98 1 3 C-0.65 4.32 -2.3 5.64 -4 7 C-4.33 6.34 -4.66 5.68 -5 5 C-4.0625 2.875 -4.0625 2.875 -3 1 C-2.34 1 -1.68 1 -1 1 C-0.67 0.67 -0.34 0.34 0 0 Z " fill="#5A605E" transform="translate(387,371)"/>
<path d="M0 0 C0.99 0.33 1.98 0.66 3 1 C2.01 1.495 2.01 1.495 1 2 C-0.13350534 4.01669827 -0.13350534 4.01669827 -1 6 C-2.32 5.67 -3.64 5.34 -5 5 C-3.625 3.5 -3.625 3.5 -2 2 C-1.34 2 -0.68 2 0 2 C0 1.34 0 0.68 0 0 Z " fill="#494B48" transform="translate(399,358)"/>
<path d="M0 0 C0.66 0.33 1.32 0.66 2 1 C-0.87164566 3.70272533 -2.30991841 4.94791837 -6.3125 5.25 C-7.199375 5.1675 -8.08625 5.085 -9 5 C-6.06626269 3.04417512 -3.21783702 1.43775696 0 0 Z " fill="#062929" transform="translate(189,279)"/>
<path d="M0 0 C2.64 0.33 5.28 0.66 8 1 C7.67 2.32 7.34 3.64 7 5 C3.535 3.02 3.535 3.02 0 1 C0 0.67 0 0.34 0 0 Z " fill="#42AEA3" transform="translate(238,155)"/>
<path d="M0 0 C2 1 2 1 2.8515625 3.06640625 C3.10679687 3.89011719 3.36203125 4.71382812 3.625 5.5625 C3.88539063 6.38878906 4.14578125 7.21507812 4.4140625 8.06640625 C4.60742188 8.70449219 4.80078125 9.34257812 5 10 C4.01 9.67 3.02 9.34 2 9 C1.26953125 6.93359375 1.26953125 6.93359375 0.8125 4.4375 C0.65394531 3.61121094 0.49539063 2.78492188 0.33203125 1.93359375 C0.16767578 0.97646484 0.16767578 0.97646484 0 0 Z " fill="#C42A52" transform="translate(319,148)"/>
<path d="M0 0 C0.33 0.66 0.66 1.32 1 2 C1.66 2.33 2.32 2.66 3 3 C1.36587557 4.70840281 0.13093906 5.93453047 -2 7 C-2.66 6.34 -3.32 5.68 -4 5 C-2.68 3.35 -1.36 1.7 0 0 Z " fill="#050B0A" transform="translate(185,105)"/>
<path d="M0 0 C0 0.99 0 1.98 0 3 C-3 5.1875 -3 5.1875 -6 7 C-6.66 6.67 -7.32 6.34 -8 6 C-7.01 5.67 -6.02 5.34 -5 5 C-5 4.34 -5 3.68 -5 3 C-2.5 1.375 -2.5 1.375 0 0 Z " fill="#606155" transform="translate(184,105)"/>
<path d="M0 0 C0.66 0.33 1.32 0.66 2 1 C-2.75 5.875 -2.75 5.875 -5 7 C-5.33 6.01 -5.66 5.02 -6 4 C-4.02 2.68 -2.04 1.36 0 0 Z " fill="#585957" transform="translate(191,100)"/>
<path d="M0 0 C0.66 0.33 1.32 0.66 2 1 C2 1.99 2 2.98 2 4 C-0.64 4 -3.28 4 -6 4 C-4.02610343 2.02610343 -2.56269497 1.04109483 0 0 Z " fill="#5C5E5C" transform="translate(306,399)"/>
<path d="M0 0 C1.65 0 3.3 0 5 0 C4.67 2.31 4.34 4.62 4 7 C0 2.25 0 2.25 0 0 Z " fill="#505151" transform="translate(151,237)"/>
<path d="M0 0 C0.33 0.99 0.66 1.98 1 3 C-0.97746603 3.73080266 -2.98072489 4.39421747 -5 5 C-5.66 4.67 -6.32 4.34 -7 4 C-4.69 2.68 -2.38 1.36 0 0 Z " fill="#CE2A55" transform="translate(268,207)"/>
<path d="M0 0 C3.875 0.875 3.875 0.875 5 2 C5.04063832 3.66617115 5.042721 5.33388095 5 7 C3.29115995 5.37660195 1.62553283 3.70680947 0 2 C0 1.34 0 0.68 0 0 Z " fill="#23040B" transform="translate(308,130)"/>
<path d="M0 0 C3.057952 1.73559438 5.63379989 3.38472619 8 6 C4.84918025 6 3.58152302 5.72101535 1 4 C0.25 1.875 0.25 1.875 0 0 Z " fill="#4ABBAC" transform="translate(291,117)"/>
</svg>
